Coordinates
version=1
nRows=28
nColumns=23
inDegrees=yes

Units are S.I. units (second, meters, Newtons, ...)
If the header above contains a line with 'inDegrees', this indicates whether rotational values are in degrees (yes) or radians (no).

endheader
time	pelvis_tilt	pelvis_list	pelvis_rotation	pelvis_tx	pelvis_ty	pelvis_tz	hip_flexion_r	hip_adduction_r	hip_rotation_r	knee_angle_r	knee_angle_r_beta	ankle_angle_r	subtalar_angle_r	mtp_angle_r	hip_flexion_l	hip_adduction_l	hip_rotation_l	knee_angle_l	knee_angle_l_beta	ankle_angle_l	subtalar_angle_l	mtp_angle_l
      7.50000000	    -12.55689509	      2.83584564	     -3.43201747	      2.39273171	      1.04798429	      1.05058614	    -12.71714681	     -1.88515876	     -6.93832520	     22.85665986	      0.39892397	    -25.42548549	     -5.25229128	      0.00000000	     45.47720415	     -0.51548732	    -10.08640149	     38.03966117	      0.66391733	      8.85412443	     -5.24047367	      0.00000000
      7.50666667	    -12.68909646	      2.72896175	     -3.10322004	      2.39378973	      1.04914835	      1.04951982	    -13.03952547	     -2.01752419	     -7.84175069	     24.66243174	      0.43044064	    -25.44657808	     -5.60505177	      0.00000000	     44.77873612	      0.07632942	     -9.75826447	     32.89957303	      0.57420587	      9.42910466	     -3.08579524	      0.00000000
      7.51333333	    -12.73189741	      2.66365591	     -2.76248305	      2.39462236	      1.04981694	      1.04827758	    -13.23894938	     -2.31803163	     -8.97566847	     26.98824810	      0.47103379	    -24.85559399	     -5.42017107	      0.00000000	     43.91845204	      0.80799921	     -9.03172339	     27.87433138	      0.48649886	      9.88924304	     -1.29573620	      0.00000000
      7.52000000	    -12.75959232	      2.60591884	     -2.52222319	      2.39525219	      1.05000234	      1.04707677	    -13.30215271	     -2.60158424	     -9.59861748	     29.60551882	      0.51671378	    -24.30085239	     -5.95457220	      0.00000000	     42.98682414	      1.47344063	     -8.13596078	     23.10304348	      0.40322418	     10.33623928	      0.34026132	      0.00000000
      7.52666667	    -12.68819994	      2.68541722	     -2.23153047	      2.39561169	      1.04980666	      1.04571228	    -13.26848238	     -3.16214441	    -10.49385647	     32.67972423	      0.57036879	    -23.30985550	     -5.71843218	      0.00000000	     41.70551448	      2.47986449	     -6.03536058	     18.13624008	      0.31653710	     10.11974362	     -0.02767075	      0.00000000
      7.53333333	    -12.46313597	      2.76747825	     -2.12295267	      2.39583937	      1.04937397	      1.04477155	    -13.26215601	     -3.64376178	    -10.70122038	     35.90831430	      0.62671831	    -22.50097599	     -6.33153759	      0.00000000	     40.24204020	      3.17591405	     -4.21954306	     13.62340002	      0.23777319	      9.86522355	     -0.17874666	      0.00000000
      7.54000000	    -12.16823835	      2.82125090	     -2.03007149	      2.39580914	      1.04853645	      1.04397379	    -13.15851382	     -4.00290921	    -10.51383763	     39.37874642	      0.68728878	    -21.83500107	     -7.36337973	      0.00000000	     38.71415721	      3.72150751	     -2.22069619	      9.58440966	      0.16727951	      9.46204182	     -0.88915839	      0.00000000
      7.54666667	    -11.83428807	      2.93384914	     -2.05686084	      2.39560378	      1.04719695	      1.04331991	    -12.89096000	     -4.37612180	     -9.96774905	     43.12422998	      0.75265980	    -21.31206668	     -8.64656686	      0.00000000	     37.65442649	      4.00427149	     -1.82650125	      7.06271807	      0.12326768	      9.70370638	     -0.01948896	      0.00000000
      7.55333333	    -11.29733870	      3.09031301	     -2.04887666	      2.39505652	      1.04586017	      1.04286218	    -12.67348523	     -4.67105985	     -9.21941652	     47.02510876	      0.82074298	    -21.03131091	    -10.26718295	      0.00000000	     36.28020621	      4.39251700	     -0.72780703	      4.74811055	      0.08287016	      9.30839721	     -0.86529308	      0.00000000
      7.56000000	    -10.82847885	      3.42267397	     -1.99478588	      2.39418320	      1.04391889	      1.04223510	    -12.18393512	     -5.09844194	     -8.44955704	     51.20086937	      0.89362375	    -20.95057878	    -11.98409803	      0.00000000	     35.52721296	      4.87162490	     -0.98766417	      3.96765539	      0.06924865	      9.53428800	     -0.59645905	      0.00000000
      7.56666667	    -10.31879953	      3.87695359	     -1.99420904	      2.39297909	      1.04174435	      1.04183515	    -11.54978650	     -5.54089412	     -7.47985183	     55.53281483	      0.96923046	    -21.19170391	    -13.91849755	      0.00000000	     34.85166464	      5.42901548	     -1.53058687	      3.82021380	      0.06667531	      9.55227604	     -0.69851045	      0.00000000
      7.57333333	     -9.83825195	      4.43841044	     -1.93472031	      2.39147723	      1.03911437	      1.04154545	    -10.74421999	     -5.97993130	     -6.49140484	     59.98269203	      1.04689547	    -21.64548436	    -15.96970219	      0.00000000	     34.40590497	      6.09643115	     -2.31303198	      4.45013835	      0.07766957	      9.58067978	     -0.92157618	      0.00000000
      7.58000000	     -9.35658455	      5.06863810	     -1.75064530	      2.38982054	      1.03595956	      1.04101740	     -9.86503272	     -6.49453825	     -5.74237420	     64.47812718	      1.12535561	    -22.18293265	    -17.85773143	      0.00000000	     34.36756925	      6.80291111	     -3.98321075	      6.29336493	      0.10983994	     10.07797565	     -0.27933269	      0.00000000
      7.58666667	     -8.90173045	      5.71276767	     -1.51792955	      2.38796100	      1.03234844	      1.04069071	     -8.87295574	     -6.94788767	     -5.03130718	     68.97034311	      1.20375957	    -22.83254823	    -19.71963343	      0.00000000	     34.34855687	      7.51024995	     -5.25732474	      8.44148116	      0.14733164	     10.06797284	     -0.47676668	      0.00000000
      7.59333333	     -8.37856177	      6.33803240	     -1.18352163	      2.38611662	      1.02821769	      1.04032375	     -7.94264793	     -7.37518339	     -4.49871464	     73.38402352	      1.28079283	    -23.35878248	    -21.31649598	      0.00000000	     34.54530170	      8.07262068	     -7.26394728	     11.54653769	      0.20152510	     10.31901613	      0.42508003	      0.00000000
      7.60000000	     -7.92389301	      6.87047921	     -0.82595216	      2.38412245	      1.02365375	      1.04018891	     -6.86667012	     -7.67012398	     -3.99966150	     77.72639387	      1.35658149	    -23.78106824	    -22.75856840	      0.00000000	     34.71825207	      8.51246666	     -8.70278554	     14.73703147	      0.25720972	     10.00286209	      0.50903450	      0.00000000
      7.60666667	     -7.48647570	      7.35642757	     -0.41958374	      2.38205826	      1.01870718	      1.04016254	     -5.72982257	     -7.91575185	     -3.58955500	     81.96244271	      1.43051449	    -24.00158010	    -23.98581828	      0.00000000	     34.87390449	      8.87395662	     -9.88457086	     18.11739951	      0.31620827	      9.30905154	      0.30170675	      0.00000000
      7.61333333	     -7.10762535	      7.74855839	      0.02583830	      2.37989060	      1.01340344	      1.04021769	     -4.47199272	     -8.07879819	     -3.25198278	     86.08433546	      1.50245509	    -23.94603465	    -24.96801882	      0.00000000	     35.05018156	      9.13216967	    -10.75842549	     21.63261601	      0.37756038	      8.37573593	     -0.22369395	      0.00000000
      7.62000000	     -6.83162432	      8.05213532	      0.47566908	      2.37749646	      1.00781203	      1.04035166	     -3.00421248	     -8.19166293	     -2.94105415	     90.10780716	      1.57267792	    -23.61424163	    -25.69673402	      0.00000000	     35.27799765	      9.31484538	    -11.29780169	     25.18995400	      0.43964764	      7.38903491	     -1.08445839	      0.00000000
      7.62666667	     -6.66826047	      8.28591778	      0.91736344	      2.37491002	      1.00200909	      1.04056357	     -1.30683918	     -8.26638902	     -2.61732701	     94.01218611	      1.64082218	    -23.03296929	    -26.17499160	      0.00000000	     35.57462466	      9.44484078	    -11.58338961	     28.79255919	      0.50252496	      6.70520446	     -2.14105620	      0.00000000
      7.63333333	     -6.66214402	      8.46233278	      1.37160011	      2.37207497	      0.99606016	      1.04075722	      0.68214497	     -8.34365986	     -2.29490797	     97.79179462	      1.70678880	    -22.23899562	    -26.45621678	      0.00000000	     35.96450586	      9.55776054	    -11.66870396	     32.37117480	      0.56498358	      6.46952847	     -3.19040995	      0.00000000
      7.64000000	     -6.76933307	      8.57884038	      1.82817047	      2.36900588	      0.99018226	      1.04095166	      2.92774575	     -8.40841117	     -1.95371193	    101.40596066	      1.76986789	    -21.29960839	    -26.55444619	      0.00000000	     36.37178727	      9.65393518	    -11.59344336	     35.87085371	      0.62606450	      6.85240567	     -4.10571796	      0.00000000
      7.64666667	     -6.98792148	      8.65197912	      2.25011389	      2.36576124	      0.98447091	      1.04118938	      5.44567641	     -8.48482122	     -1.55312595	    104.83452580	      1.82970765	    -20.27119621	    -26.51912890	      0.00000000	     36.74857430	      9.70399804	    -11.49221541	     39.21314545	      0.68439850	      7.85725602	     -4.68686867	      0.00000000
      7.65333333	     -7.25985847	      8.64577612	      2.64300038	      2.36232398	      0.97915345	      1.04143906	      8.18422861	     -8.50459386	     -1.09877233	    108.02608590	      1.88541088	    -19.19591800	    -26.31533879	      0.00000000	     36.99571063	      9.69707622	    -11.29395644	     42.32012247	      0.73862548	      9.49492291	     -4.86042239	      0.00000000
      7.66000000	     -7.54135519	      8.56883174	      3.01846452	      2.35886027	      0.97437307	      1.04167461	     11.06671774	     -8.49538785	     -0.64292900	    110.92678992	      1.93603771	    -18.11953037	    -25.96340539	      0.00000000	     37.01156099	      9.62694092	    -11.03927311	     45.10001309	      0.78714372	     11.55552509	     -4.62818397	      0.00000000
      7.66666667	     -7.83093348	      8.44017337	      3.35017203	      2.35536340	      0.97021392	      1.04191913	     14.10471112	     -8.44145711	     -0.14697007	    113.50440796	      1.98102563	    -17.05593713	    -25.49761352	      0.00000000	     36.77208202	      9.49004517	    -10.76484904	     47.48657550	      0.82879709	     13.91379327	     -4.01364272	      0.00000000
      7.67333333	     -8.06467675	      8.27385187	      3.61285008	      2.35200679	      0.96682711	      1.04215434	     17.19591576	     -8.35500470	      0.37805115	    115.71055449	      2.01953016	    -16.04944031	    -24.92351778	      0.00000000	     36.18181743	      9.29400926	    -10.48003805	     49.42404412	      0.86261230	     16.40947548	     -3.09441598	      0.00000000
      7.68000000	     -8.20326189	      8.04177462	      3.86870957	      2.34887576	      0.96433144	      1.04226138	     20.24496386	     -8.23018217	      0.81691048	    117.49093124	      2.05060359	    -15.03736564	    -24.18249289	      0.00000000	     35.19987761	      9.07776924	    -10.07018259	     50.89443895	      0.88827553	     18.90837537	     -2.04105391	      0.00000000
